<?xml version="1.0" encoding="utf-8"?>
<!-- Generator: Adobe Illustrator 23.0.1, SVG Export Plug-In . SVG Version: 6.00 Build 0)  -->
<svg version="1.1" xmlns="http://www.w3.org/2000/svg" xmlns:xlink="http://www.w3.org/1999/xlink" x="0px" y="0px"
	 viewBox="0 0 91 91" style="enable-background:new 0 0 91 91;" xml:space="preserve">
<style type="text/css">
	.st0{display:none;fill:#30AB86;}
	.st1{fill:#7F4704;}
	.st2{fill:url(#SVGID_1_);}
	.st3{fill:#ADB1B2;}
	.st4{fill:url(#SVGID_2_);}
	.st5{fill:#683A02;}
	.st6{fill:#3A312A;}
	.st7{fill:#B8FF66;}
</style>
<g id="Layer_2">
</g>
<g id="Layer_1">
	<path class="st0" d="M45.6,73.1c12.2,0,22.1-9.9,22.1-22.1S57.8,29,45.6,29c0,0,17.8,4.9,17.8,22.1S45.6,73.1,45.6,73.1z"/>
	<g>
		<g>
			<g>
				<path class="st1" d="M66.2,44.9c-2.7-4-6.5-7.3-11-9.2c-3-1.3-6.2-2-9.7-2c-3.4,0-6.7,0.7-9.7,2c-4.5,1.9-8.3,5.1-11,9.2
					c-2.6,3.9-4.1,8.6-4.1,13.7c0,13.7,11.1,24.8,24.8,24.8s24.8-11.1,24.8-24.8C70.4,53.5,68.8,48.8,66.2,44.9z M45.6,80.3
					c-0.6,0-1.2,0-1.8-0.1c0.2,0,0.3,0,0.5-0.1c-11.3-0.7-20.2-10-20.2-21.4c0-5,1.7-9.6,4.6-13.3L31,43c3.5-3.3,8.2-5.4,13.3-5.7
					c-0.2,0-0.3,0-0.5,0c0.6,0,1.2-0.1,1.8-0.1l0,0c11.9,0,21.6,9.7,21.6,21.6C67.2,70.7,57.5,80.3,45.6,80.3z"/>
			</g>
		</g>
		
			<radialGradient id="SVGID_1_" cx="45.5377" cy="33.295" r="22.06" gradientTransform="matrix(1 0 0 -1 0 91.89)" gradientUnits="userSpaceOnUse">
			<stop  offset="0" style="stop-color:#95E941"/>
			<stop  offset="0.5071" style="stop-color:#93E73F"/>
			<stop  offset="0.6898" style="stop-color:#8CE13A"/>
			<stop  offset="0.82" style="stop-color:#81D52F"/>
			<stop  offset="0.9245" style="stop-color:#70C521"/>
			<stop  offset="1" style="stop-color:#5EB412"/>
		</radialGradient>
		<circle class="st2" cx="45.5" cy="58.6" r="22.1"/>
		<g>
			<g>
				<path class="st3" d="M33.1,25.5c0-6.7,5.7-12.4,12.4-12.4s12.4,5.7,12.4,12.4v8.3h5.5v-8.3c0-9.8-8.1-17.9-17.9-17.9
					s-17.9,8.1-17.9,17.9v8.3h5.5C33.1,33.8,33.1,25.5,33.1,25.5z"/>
				
					<radialGradient id="SVGID_2_" cx="45.0292" cy="63.647" r="24.2049" gradientTransform="matrix(1 0 0 -1 0 91.89)" gradientUnits="userSpaceOnUse">
					<stop  offset="0" style="stop-color:#FFFFFF"/>
					<stop  offset="0.1408" style="stop-color:#F3F3F3"/>
					<stop  offset="0.3966" style="stop-color:#D2D2D2"/>
					<stop  offset="0.7364" style="stop-color:#9E9E9E"/>
					<stop  offset="0.7694" style="stop-color:#999999"/>
				</radialGradient>
				<path class="st4" d="M33.1,25.5c0-6.7,5.7-12.4,12.4-12.4s12.4,5.7,12.4,12.4v8.3h5.5v-8.3c0-9.8-8.1-17.9-17.9-17.9
					s-17.9,8.1-17.9,17.9v8.3h5.5C33.1,33.8,33.1,25.5,33.1,25.5z"/>
			</g>
			<path class="st5" d="M35.9,35.9v-2.1h-2.8h-5.5h-2.8V45C27.5,41,31.4,37.8,35.9,35.9z"/>
			<path class="st5" d="M55.2,33.8v2.1c4.5,1.9,8.3,5.1,11,9.2V33.8h-2.8h-5.5H55.2L55.2,33.8z"/>
			
				<ellipse transform="matrix(0.7071 -0.7071 0.7071 0.7071 -23.2101 52.5613)" class="st6" cx="51.8" cy="54.3" rx="1.8" ry="1.1"/>
			<path class="st6" d="M56.2,60.5c0-0.6-0.8-1.1-1.8-1.1s-1.8,0.5-1.8,1.1s0.8,1.1,1.8,1.1S56.2,61.1,56.2,60.5z"/>
			<path class="st6" d="M51,67.5c0.7,0.7,1.7,0.9,2.1,0.5c0.5-0.5,0.2-1.4-0.5-2.1c-0.7-0.7-1.7-0.9-2.1-0.5
				C50.1,65.9,50.3,66.8,51,67.5z"/>
			<path class="st6" d="M46.8,69.3c0-1-0.5-1.8-1.1-1.8s-1.1,0.8-1.1,1.8c0,1,0.5,1.8,1.1,1.8S46.8,70.3,46.8,69.3z"/>
			<path class="st6" d="M36.9,61.6c1,0,1.8-0.5,1.8-1.1s-0.8-1.1-1.8-1.1S35,59.9,35,60.5C35,61.1,35.8,61.6,36.9,61.6z"/>
			<path class="st6" d="M38.1,68c0.5,0.4,1.4,0.2,2.1-0.5c0.7-0.7,0.9-1.7,0.5-2.1l0,0c-0.5-0.5-1.4-0.2-2.1,0.5
				C37.9,66.6,37.7,67.6,38.1,68z"/>
			<path class="st6" d="M38.1,53c-0.5,0.5-0.2,1.4,0.5,2.1c0.7,0.7,1.7,0.9,2.1,0.5c0.4-0.5,0.2-1.4-0.5-2.1l0,0
				C39.5,52.8,38.6,52.5,38.1,53z"/>
			<g>
				<path class="st7" d="M42.8,50.1v6c-1.5,0.9-2.4,2.6-2.4,4.4c0,2.9,2.3,5.2,5.2,5.2s5.2-2.3,5.2-5.2c0-1.9-1-3.5-2.4-4.4v-6
					c0-1.3-1-2.3-2.3-2.3h-0.9C43.9,47.8,42.8,48.8,42.8,50.1z"/>
			</g>
		</g>
	</g>
</g>
</svg>
